HIERARCHY
ROOT Hips
{
	OFFSET 0.000000 97.167313 0.000000
	CHANNELS 6 Xposition Yposition Zposition Xrotation Yrotation Zrotation
	JOINT Spine
	{
		OFFSET 0.000000 13.784798 0.064400
		CHANNELS 3 Xrotation Yrotation Zrotation
		JOINT Spine1
		{
			OFFSET 0.000000 12.037903 0.404700
			CHANNELS 3 Xrotation Yrotation Zrotation
			JOINT Spine2
			{
				OFFSET 0.000000 17.795601 0.420200
				CHANNELS 3 Xrotation Yrotation Zrotation
				JOINT Neck
				{
					OFFSET 0.000000 39.131302 11.954600
					CHANNELS 3 Xrotation Yrotation Zrotation
					JOINT Head
					{
						OFFSET 0.000000 14.456192 15.627699
						CHANNELS 3 Xrotation Yrotation Zrotation
						JOINT HeadTop_End
						{
							OFFSET 0.000000 15.703506 7.603401
							CHANNELS 3 Xrotation Yrotation Zrotation
							End Site
							{
								OFFSET 0.000000 17.447403 0.000000
							}
						}
					}
				}
				JOINT LeftShoulder
				{
					OFFSET 17.399500 24.608795 1.168800
					CHANNELS 3 Xrotation Yrotation Zrotation
					JOINT LeftArm
					{
						OFFSET 18.980635 5.765305 1.818600
						CHANNELS 3 Xrotation Yrotation Zrotation
						JOINT LeftForeArm
						{
							OFFSET 49.290169 0.000000 0.000000
							CHANNELS 3 Xrotation Yrotation Zrotation
							JOINT LeftHand
							{
								OFFSET 31.562012 0.000000 0.000000
								CHANNELS 3 Xrotation Yrotation Zrotation
								JOINT LeftHandThumb1
								{
									OFFSET 6.133995 -4.388519 7.076070
									CHANNELS 3 Xrotation Yrotation Zrotation
									JOINT LeftHandThumb2
									{
										OFFSET 6.037666 -3.485840 3.485847
										CHANNELS 3 Xrotation Yrotation Zrotation
										JOINT LeftHandThumb3
										{
											OFFSET 6.496506 -3.750763 3.750761
											CHANNELS 3 Xrotation Yrotation Zrotation
											JOINT LeftHandThumb4
											{
												OFFSET 5.616882 -3.242905 3.242910
												CHANNELS 3 Xrotation Yrotation Zrotation
												End Site
												{
													OFFSET -1.254608 7.132141 0.375429
												}
											}
										}
									}
								}
								JOINT LeftHandPinky1
								{
									OFFSET 18.920792 -0.453171 -11.426712
									CHANNELS 3 Xrotation Yrotation Zrotation
									JOINT LeftHandPinky2
									{
										OFFSET 4.919586 0.000000 0.000000
										CHANNELS 3 Xrotation Yrotation Zrotation
										JOINT LeftHandPinky3
										{
											OFFSET 5.233047 0.000000 0.000000
											CHANNELS 3 Xrotation Yrotation Zrotation
											JOINT LeftHandPinky4
											{
												OFFSET 5.571716 0.000000 0.000000
												CHANNELS 3 Xrotation Yrotation Zrotation
												End Site
												{
													OFFSET -3.459808 4.342407 -0.466164
												}
											}
										}
									}
								}
								JOINT LeftHandRing1
								{
									OFFSET 22.726120 -0.094986 -6.500475
									CHANNELS 3 Xrotation Yrotation Zrotation
									JOINT LeftHandRing2
									{
										OFFSET 6.408615 0.000000 0.000000
										CHANNELS 3 Xrotation Yrotation Zrotation
										JOINT LeftHandRing3
										{
											OFFSET 6.150223 0.000000 0.000000
											CHANNELS 3 Xrotation Yrotation Zrotation
											JOINT LeftHandRing4
											{
												OFFSET 6.145386 0.000000 0.000000
												CHANNELS 3 Xrotation Yrotation Zrotation
												End Site
												{
													OFFSET -3.671402 4.923981 -0.202372
												}
											}
										}
									}
								}
								JOINT LeftHandMiddle1
								{
									OFFSET 23.373947 0.000000 0.000001
									CHANNELS 3 Xrotation Yrotation Zrotation
									JOINT LeftHandMiddle2
									{
										OFFSET 6.996567 0.000000 0.000000
										CHANNELS 3 Xrotation Yrotation Zrotation
										JOINT LeftHandMiddle3
										{
											OFFSET 7.015945 0.000000 0.000000
											CHANNELS 3 Xrotation Yrotation Zrotation
											JOINT LeftHandMiddle4
											{
												OFFSET 7.721573 0.000000 0.000000
												CHANNELS 3 Xrotation Yrotation Zrotation
												End Site
												{
													OFFSET -4.651108 6.158463 0.251582
												}
											}
										}
									}
								}
								JOINT LeftHandIndex1
								{
									OFFSET 21.310577 -0.490082 6.209344
									CHANNELS 3 Xrotation Yrotation Zrotation
									JOINT LeftHandIndex2
									{
										OFFSET 7.536453 0.000000 0.000000
										CHANNELS 3 Xrotation Yrotation Zrotation
										JOINT LeftHandIndex3
										{
											OFFSET 7.512344 0.000000 0.000000
											CHANNELS 3 Xrotation Yrotation Zrotation
											JOINT LeftHandIndex4
											{
												OFFSET 10.212402 0.000000 0.000001
												CHANNELS 3 Xrotation Yrotation Zrotation
												End Site
												{
													OFFSET -5.180801 8.690506 1.388433
												}
											}
										}
									}
								}
							}
						}
					}
				}
				JOINT RightShoulder
				{
					OFFSET -17.399500 24.608795 1.168800
					CHANNELS 3 Xrotation Yrotation Zrotation
					JOINT RightArm
					{
						OFFSET -18.980635 5.765305 1.818600
						CHANNELS 3 Xrotation Yrotation Zrotation
						JOINT RightForeArm
						{
							OFFSET -49.290169 0.000000 0.000000
							CHANNELS 3 Xrotation Yrotation Zrotation
							JOINT RightHand
							{
								OFFSET -31.562012 0.000000 0.000000
								CHANNELS 3 Xrotation Yrotation Zrotation
								JOINT RightHandThumb1
								{
									OFFSET -6.133995 -4.388519 7.076070
									CHANNELS 3 Xrotation Yrotation Zrotation
									JOINT RightHandThumb2
									{
										OFFSET -6.037666 -3.485840 3.485847
										CHANNELS 3 Xrotation Yrotation Zrotation
										JOINT RightHandThumb3
										{
											OFFSET -6.496506 -3.750763 3.750761
											CHANNELS 3 Xrotation Yrotation Zrotation
											JOINT RightHandThumb4
											{
												OFFSET -5.616882 -3.242905 3.242910
												CHANNELS 3 Xrotation Yrotation Zrotation
												End Site
												{
													OFFSET 1.254608 7.132141 0.375429
												}
											}
										}
									}
								}
								JOINT RightHandIndex1
								{
									OFFSET -21.310577 -0.490082 6.209344
									CHANNELS 3 Xrotation Yrotation Zrotation
									JOINT RightHandIndex2
									{
										OFFSET -7.536453 0.000000 0.000000
										CHANNELS 3 Xrotation Yrotation Zrotation
										JOINT RightHandIndex3
										{
											OFFSET -7.512344 0.000000 0.000000
											CHANNELS 3 Xrotation Yrotation Zrotation
											JOINT RightHandIndex4
											{
												OFFSET -10.212402 0.000000 0.000001
												CHANNELS 3 Xrotation Yrotation Zrotation
												End Site
												{
													OFFSET 5.180801 8.690506 1.388433
												}
											}
										}
									}
								}
								JOINT RightHandMiddle1
								{
									OFFSET -23.373947 0.000000 0.000001
									CHANNELS 3 Xrotation Yrotation Zrotation
									JOINT RightHandMiddle2
									{
										OFFSET -6.996567 0.000000 0.000000
										CHANNELS 3 Xrotation Yrotation Zrotation
										JOINT RightHandMiddle3
										{
											OFFSET -7.015945 0.000000 0.000000
											CHANNELS 3 Xrotation Yrotation Zrotation
											JOINT RightHandMiddle4
											{
												OFFSET -7.721573 0.000000 0.000000
												CHANNELS 3 Xrotation Yrotation Zrotation
												End Site
												{
													OFFSET 4.651108 6.158463 0.251582
												}
											}
										}
									}
								}
								JOINT RightHandRing1
								{
									OFFSET -22.726120 -0.094986 -6.500475
									CHANNELS 3 Xrotation Yrotation Zrotation
									JOINT RightHandRing2
									{
										OFFSET -6.408615 0.000000 0.000000
										CHANNELS 3 Xrotation Yrotation Zrotation
										JOINT RightHandRing3
										{
											OFFSET -6.150223 0.000000 0.000000
											CHANNELS 3 Xrotation Yrotation Zrotation
											JOINT RightHandRing4
											{
												OFFSET -6.145386 0.000000 0.000000
												CHANNELS 3 Xrotation Yrotation Zrotation
												End Site
												{
													OFFSET 3.671402 4.923981 -0.202372
												}
											}
										}
									}
								}
								JOINT RightHandPinky1
								{
									OFFSET -18.920792 -0.453171 -11.426712
									CHANNELS 3 Xrotation Yrotation Zrotation
									JOINT RightHandPinky2
									{
										OFFSET -4.919586 0.000000 0.000000
										CHANNELS 3 Xrotation Yrotation Zrotation
										JOINT RightHandPinky3
										{
											OFFSET -5.233047 0.000000 0.000000
											CHANNELS 3 Xrotation Yrotation Zrotation
											JOINT RightHandPinky4
											{
												OFFSET -5.571716 0.000000 0.000000
												CHANNELS 3 Xrotation Yrotation Zrotation
												End Site
												{
													OFFSET 3.459808 4.342407 -0.466164
												}
											}
										}
									}
								}
							}
						}
					}
				}
			}
		}
	}
	JOINT LeftUpLeg
	{
		OFFSET 19.899099 -7.885101 -3.429500
		CHANNELS 3 Xrotation Yrotation Zrotation
		JOINT LeftLeg
		{
			OFFSET 1.745560 -36.997807 10.304700
			CHANNELS 3 Xrotation Yrotation Zrotation
			JOINT LeftFoot
			{
				OFFSET -1.745558 -29.803308 -13.615400
				CHANNELS 3 Xrotation Yrotation Zrotation
				JOINT LeftToeBase
				{
					OFFSET 1.181900 -18.539904 15.226099
					CHANNELS 3 Xrotation Yrotation Zrotation
					JOINT LeftToe_End
					{
						OFFSET -0.863701 1.402801 16.534700
						CHANNELS 3 Xrotation Yrotation Zrotation
						End Site
						{
							OFFSET 0.000000 16.616566 0.000000
						}
					}
				}
			}
		}
	}
	JOINT RightUpLeg
	{
		OFFSET -19.899099 -7.885101 -3.429500
		CHANNELS 3 Xrotation Yrotation Zrotation
		JOINT RightLeg
		{
			OFFSET -1.745560 -36.997807 10.304700
			CHANNELS 3 Xrotation Yrotation Zrotation
			JOINT RightFoot
			{
				OFFSET 1.745558 -29.803308 -13.615400
				CHANNELS 3 Xrotation Yrotation Zrotation
				JOINT RightToeBase
				{
					OFFSET -1.181900 -18.539904 15.226099
					CHANNELS 3 Xrotation Yrotation Zrotation
					JOINT RightToe_End
					{
						OFFSET 0.863701 1.402801 16.534700
						CHANNELS 3 Xrotation Yrotation Zrotation
						End Site
						{
							OFFSET 0.000000 16.616566 0.000000
						}
					}
				}
			}
		}
	}
}
MOTION
Frames: 5
Frame Time: 0.033333
5.159614 81.075539 50.376980 27.768069 81.220068 -20.758934 11.146096 19.875743 -5.828676 2.331169 5.572856 -0.405757 2.398988 5.509266 -0.536632 1.956148 -5.549003 4.694574 7.906284 -49.669119 27.568918 0.000001 0.000000 -0.000001 0.395763 11.775140 -8.245955 39.489237 16.337080 -68.486594 0.000219 -78.887940 0.000216 -2.459769 -18.554769 27.638758 34.803461 -14.953272 -21.147705 16.932618 25.127018 5.283863 2.546886 4.144112 11.506636 -0.000002 0.000001 -0.000002 6.921366 18.591512 -79.496640 2.960154 5.089153 -60.347911 3.182567 5.209010 -62.825719 -0.000000 0.000002 -0.000005 7.935886 8.590745 -80.993742 3.314214 5.274221 -64.266589 6.472978 5.818024 -96.112079 0.000001 -0.000004 0.000005 5.789688 8.409711 -73.516932 3.487039 5.353750 -66.132617 5.994275 5.849319 -91.404959 -0.000005 -0.000002 0.000001 5.539295 3.781068 -74.128842 2.872820 5.038644 -59.358510 6.950472 5.747182 -100.848576 -0.000001 -0.000000 0.000001 1.726319 39.581978 4.885230 -59.477048 36.062788 74.712373 0.000002 48.367752 0.000017 -84.418276 -10.912529 -25.662421 33.165189 16.381251 21.951361 17.292388 -27.153648 -5.528680 4.555394 -10.040726 -12.822820 -0.000002 -0.000001 -0.000001 4.651275 -2.558389 73.389877 2.288882 -4.011181 59.406629 5.531161 -4.574592 100.828263 -0.000000 -0.000001 0.000003 4.854610 -7.193591 72.800719 2.777540 -4.261773 66.173209 4.771006 -4.655783 91.402261 -0.000000 0.000000 -0.000004 6.845396 -7.366724 80.254846 2.640054 -4.198531 64.309510 5.151567 -4.630903 96.100468 0.000005 -0.000001 -0.000002 5.731570 -17.358851 78.773029 2.358366 -4.051357 60.395087 2.535311 -4.146683 62.870300 0.000000 0.000000 0.000000 -37.053114 -4.974830 7.957532 22.317252 -10.476486 5.834169 -5.007851 -27.555365 -26.293194 -0.153442 0.000025 0.000002 -0.000000 0.000001 0.000000 -22.247700 -39.162092 -53.953252 29.392401 2.250939 8.148488 -5.896642 -20.393961 30.248534 -0.603944 0.000007 -0.000010 0.000000 0.000001 -0.000000 
5.138157 81.806694 50.434135 24.266933 79.151374 -17.170938 11.424717 19.941623 -6.191768 2.370203 5.622430 -0.473123 2.435160 5.557546 -0.607204 1.932699 -5.553091 4.725290 7.574106 -49.641501 27.384641 -0.000001 -0.000001 -0.000001 0.485566 11.322887 -8.840372 39.531656 15.007346 -68.211631 0.000042 -77.964670 0.000064 -2.524379 -18.571542 27.436252 34.803461 -14.953265 -21.147703 16.932616 25.127021 5.283858 2.546887 4.144114 11.506640 0.000001 -0.000001 0.000000 6.921373 18.591509 -79.496633 2.960153 5.089154 -60.347911 3.182571 5.209012 -62.825719 0.000001 0.000001 -0.000000 7.935888 8.590741 -80.993742 3.314212 5.274226 -64.266589 6.472979 5.818022 -96.112086 -0.000001 -0.000001 0.000007 5.789692 8.409710 -73.516939 3.487043 5.353751 -66.132624 5.994269 5.849321 -91.404959 0.000000 -0.000003 0.000009 5.539298 3.781068 -74.128842 2.872822 5.038644 -59.358510 6.950466 5.747185 -100.848570 -0.000000 0.000006 0.000000 2.014633 38.392749 4.359078 -58.288247 35.537679 74.657977 -0.000011 49.090943 0.000000 -83.799837 -11.242092 -26.493751 33.165189 16.381252 21.951362 17.292386 -27.153648 -5.528678 4.555396 -10.040726 -12.822823 -0.000001 0.000001 -0.000001 4.651275 -2.558388 73.389877 2.288886 -4.011182 59.406629 5.531158 -4.574592 100.828270 -0.000003 -0.000001 -0.000002 4.854605 -7.193590 72.800712 2.777538 -4.261774 66.173195 4.771008 -4.655779 91.402254 -0.000001 0.000003 -0.000003 6.845391 -7.366725 80.254853 2.640057 -4.198532 64.309510 5.151566 -4.630906 96.100468 -0.000001 -0.000003 -0.000000 5.731565 -17.358851 78.773036 2.358370 -4.051359 60.395094 2.535312 -4.146684 62.870300 -0.000000 -0.000003 0.000004 -35.278053 -4.725823 9.014824 20.960382 -9.534634 5.392375 -5.103721 -26.704090 -26.184172 -0.151148 -0.000003 0.000006 -0.000000 -0.000001 -0.000000 -23.448311 -37.802973 -52.939516 28.475795 3.538177 7.504517 -5.153849 -21.037372 29.115901 -0.606433 0.000003 -0.000005 0.000000 0.000001 0.000000 
5.094129 82.572502 50.487823 21.665920 76.385106 -14.586991 11.655671 20.115274 -6.630281 2.348892 5.705714 -0.465994 2.415631 5.638745 -0.597864 1.885551 -5.568153 4.813375 7.375546 -49.695896 27.478841 -0.000000 0.000000 -0.000002 0.609852 10.719102 -9.757183 39.615517 13.763174 -67.850594 0.000099 -77.077107 0.000100 -2.510401 -18.529646 27.516322 34.803465 -14.953272 -21.147710 16.932621 25.127023 5.283854 2.546885 4.144108 11.506635 -0.000001 -0.000002 -0.000004 6.921365 18.591507 -79.496640 2.960154 5.089151 -60.347911 3.182567 5.209011 -62.825719 0.000004 -0.000001 0.000003 7.935890 8.590743 -80.993742 3.314214 5.274220 -64.266595 6.472979 5.818020 -96.112086 -0.000001 -0.000003 0.000007 5.789691 8.409707 -73.516939 3.487040 5.353753 -66.132617 5.994272 5.849321 -91.404952 0.000000 -0.000003 0.000009 5.539294 3.781069 -74.128842 2.872819 5.038644 -59.358510 6.950462 5.747182 -100.848570 0.000005 -0.000000 0.000001 2.396984 37.035690 3.380053 -57.014867 34.903260 74.695686 0.000014 49.727366 -0.000010 -83.407552 -11.448574 -26.973271 33.165196 16.381251 21.951359 17.292389 -27.153648 -5.528679 4.555395 -10.040726 -12.822823 -0.000002 -0.000000 -0.000003 4.651283 -2.558390 73.389884 2.288879 -4.011180 59.406636 5.531161 -4.574595 100.828270 -0.000002 -0.000003 -0.000004 4.854613 -7.193590 72.800726 2.777543 -4.261772 66.173209 4.771011 -4.655778 91.402254 -0.000002 -0.000003 -0.000004 6.845399 -7.366726 80.254846 2.640054 -4.198529 64.309510 5.151567 -4.630902 96.100468 0.000002 -0.000003 -0.000000 5.731575 -17.358849 78.773029 2.358367 -4.051359 60.395087 2.535310 -4.146682 62.870300 0.000000 -0.000000 0.000002 -33.385685 -4.334810 10.354688 19.777661 -8.677096 4.953507 -5.386066 -25.283794 -25.974566 -0.147611 -0.000007 0.000001 -0.000000 0.000002 0.000000 -23.702220 -35.213730 -50.701976 27.470963 4.619446 7.148808 -4.258252 -22.396433 27.908708 -0.607452 -0.000011 0.000001 0.000000 -0.000000 -0.000000 
4.987579 83.319588 50.559036 19.816822 73.064548 -12.794631 11.769249 20.123283 -7.044513 2.336393 5.737218 -0.386063 2.409324 5.665421 -0.513343 1.846670 -5.558948 4.891232 7.501146 -49.608340 27.810951 -0.000000 -0.000001 0.000000 0.756628 9.792306 -11.059942 39.594060 12.562307 -67.440489 0.000070 -76.249623 0.000063 -2.192120 -18.420709 28.361020 34.803461 -14.953272 -21.147712 16.932620 25.127021 5.283862 2.546890 4.144112 11.506635 0.000000 0.000001 -0.000002 6.921368 18.591507 -79.496640 2.960153 5.089159 -60.347911 3.182571 5.209010 -62.825719 0.000001 0.000001 -0.000000 7.935886 8.590744 -80.993742 3.314216 5.274223 -64.266589 6.472977 5.818025 -96.112086 -0.000000 -0.000001 0.000001 5.789692 8.409713 -73.516939 3.487041 5.353752 -66.132624 5.994273 5.849319 -91.404959 0.000000 0.000001 0.000011 5.539296 3.781073 -74.128842 2.872823 5.038645 -59.358510 6.950469 5.747183 -100.848570 -0.000003 0.000001 -0.000001 2.665215 35.923127 2.555597 -54.841187 33.466841 73.930446 0.000020 51.150327 -0.000010 -82.807096 -11.948671 -27.150555 33.165196 16.381254 21.951362 17.292386 -27.153648 -5.528677 4.555394 -10.040726 -12.822816 -0.000001 0.000003 0.000001 4.651282 -2.558384 73.389877 2.288877 -4.011177 59.406636 5.531163 -4.574593 100.828270 -0.000001 -0.000003 -0.000001 4.854606 -7.193591 72.800719 2.777535 -4.261771 66.173195 4.771009 -4.655781 91.402254 -0.000002 0.000003 -0.000006 6.845394 -7.366726 80.254853 2.640056 -4.198534 64.309510 5.151566 -4.630905 96.100468 0.000001 -0.000000 -0.000003 5.731565 -17.358851 78.773029 2.358365 -4.051360 60.395094 2.535311 -4.146680 62.870307 0.000001 -0.000000 0.000002 -31.421855 -3.703627 11.741965 18.773134 -8.477777 4.548762 -5.717767 -22.858123 -25.515188 -0.142962 0.000008 0.000004 -0.000000 0.000001 -0.000000 -23.487999 -31.567034 -47.687889 26.436747 5.977635 7.045039 -3.312345 -24.753435 26.534506 -0.605484 0.000006 0.000001 0.000000 0.000001 -0.000000 
4.846779 83.966240 50.643795 18.268009 68.894602 -11.221634 11.813197 19.702423 -7.399427 2.385296 5.641022 -0.415664 2.455320 5.566620 -0.542580 1.916151 -5.492845 4.946519 8.121374 -48.971483 28.394623 0.000002 0.000000 -0.000001 0.799845 8.745943 -11.719870 39.393492 11.276212 -67.290587 0.000028 -75.421025 0.000006 -1.651057 -18.405237 29.630477 34.803468 -14.953268 -21.147705 16.932621 25.127026 5.283864 2.546889 4.144112 11.506635 0.000001 -0.000003 0.000001 6.921368 18.591505 -79.496633 2.960150 5.089157 -60.347911 3.182568 5.209010 -62.825719 -0.000001 0.000002 0.000001 7.935888 8.590742 -80.993742 3.314215 5.274223 -64.266589 6.472981 5.818026 -96.112086 0.000002 -0.000001 -0.000000 5.789691 8.409708 -73.516939 3.487038 5.353752 -66.132617 5.994266 5.849319 -91.404966 -0.000000 -0.000002 0.000004 5.539294 3.781071 -74.128842 2.872826 5.038647 -59.358510 6.950465 5.747180 -100.848570 -0.000000 0.000003 -0.000003 2.449454 35.526440 3.315137 -51.754006 31.557994 71.779804 -0.000021 53.761068 0.000010 -81.895423 -12.889568 -27.577121 33.165196 16.381249 21.951359 17.292388 -27.153651 -5.528680 4.555395 -10.040731 -12.822824 0.000003 0.000000 0.000002 4.651282 -2.558390 73.389884 2.288882 -4.011181 59.406636 5.531157 -4.574599 100.828277 -0.000000 -0.000002 0.000003 4.854610 -7.193592 72.800712 2.777536 -4.261773 66.173202 4.771009 -4.655776 91.402261 0.000003 0.000000 -0.000004 6.845398 -7.366725 80.254846 2.640055 -4.198531 64.309510 5.151565 -4.630908 96.100468 -0.000005 -0.000000 -0.000003 5.731573 -17.358851 78.773029 2.358366 -4.051360 60.395094 2.535311 -4.146683 62.870307 0.000001 -0.000000 0.000002 -29.202791 -3.009554 13.192043 18.145678 -8.407857 4.136783 -6.434936 -19.402199 -24.936370 -0.137299 -0.000035 -0.000001 0.000000 0.000001 0.000000 -23.596678 -26.794714 -44.696888 25.708999 6.562878 6.905587 -2.114272 -26.352746 25.439144 -0.587538 0.000005 -0.000001 -0.000000 0.000000 -0.000000 
